<svg width="32" height="32" viewBox="0 0 32 32" fill="none" xmlns="http://www.w3.org/2000/svg">
<rect x="8" y="8" width="16" height="16" rx="2" fill="#D14663"/>
<g clip-path="url(#clip0_184_3315)">
<path d="M21.1593 12.2155L14.2498 19.1245C14.2034 19.1711 14.1482 19.2081 14.0874 19.2334C14.0266 19.2587 13.9614 19.2716 13.8956 19.2716C13.8297 19.2716 13.7646 19.2587 13.7038 19.2334C13.643 19.2081 13.5878 19.1711 13.5413 19.1245L10.8693 16.45C10.8229 16.4034 10.7677 16.3664 10.7069 16.3411C10.6461 16.3159 10.5809 16.3029 10.5151 16.3029C10.4492 16.3029 10.3841 16.3159 10.3233 16.3411C10.2625 16.3664 10.2073 16.4034 10.1608 16.45C10.1142 16.4965 10.0772 16.5517 10.0519 16.6125C10.0267 16.6732 10.0137 16.7384 10.0137 16.8043C10.0137 16.8701 10.0267 16.9353 10.0519 16.9961C10.0772 17.0568 10.1142 17.112 10.1608 17.1585L12.8338 19.831C13.1158 20.1125 13.4979 20.2705 13.8963 20.2705C14.2947 20.2705 14.6768 20.1125 14.9588 19.831L21.8678 12.9235C21.9144 12.8771 21.9513 12.8219 21.9765 12.7611C22.0017 12.7004 22.0147 12.6353 22.0147 12.5695C22.0147 12.5037 22.0017 12.4386 21.9765 12.3779C21.9513 12.3171 21.9144 12.2619 21.8678 12.2155C21.8214 12.1689 21.7662 12.1319 21.7054 12.1066C21.6446 12.0814 21.5794 12.0684 21.5136 12.0684C21.4477 12.0684 21.3826 12.0814 21.3218 12.1066C21.261 12.1319 21.2058 12.1689 21.1593 12.2155Z" fill="white"/>
</g>
<defs>
<clipPath id="clip0_184_3315">
<rect width="12" height="12" fill="white" transform="translate(10 10)"/>
</clipPath>
</defs>
</svg>
