<svg width="16" height="16" viewBox="0 0 16 16" fill="none" xmlns="http://www.w3.org/2000/svg">
<path d="M12.0005 5.66744C11.9127 5.66693 11.8257 5.68375 11.7445 5.71692C11.6633 5.7501 11.5894 5.79898 11.5271 5.86077L8.47378 8.92077C8.41181 8.98326 8.33807 9.03285 8.25683 9.0667C8.17559 9.10055 8.08846 9.11797 8.00045 9.11797C7.91244 9.11797 7.8253 9.10055 7.74407 9.0667C7.66283 9.03285 7.58909 8.98326 7.52712 8.92077L4.47378 5.86077C4.34825 5.73524 4.17798 5.66471 4.00045 5.66471C3.82291 5.66471 3.65265 5.73524 3.52712 5.86077C3.40158 5.98631 3.33105 6.15657 3.33105 6.33411C3.33105 6.42201 3.34837 6.50906 3.38201 6.59027C3.41565 6.67149 3.46496 6.74528 3.52712 6.80744L6.58712 9.86077C6.96708 10.2258 7.47355 10.4297 8.00045 10.4297C8.52735 10.4297 9.03382 10.2258 9.41378 9.86077L12.4738 6.80744C12.5363 6.74546 12.5859 6.67173 12.6197 6.59049C12.6536 6.50925 12.671 6.42211 12.671 6.33411C12.671 6.2461 12.6536 6.15896 12.6197 6.07772C12.5859 5.99648 12.5363 5.92275 12.4738 5.86077C12.4115 5.79898 12.3376 5.7501 12.2564 5.71692C12.1752 5.68375 12.0882 5.66693 12.0005 5.66744Z" fill="#1E1E1E"/>
</svg>
