<svg width="8" height="16" viewBox="0 0 8 16" fill="none" xmlns="http://www.w3.org/2000/svg">
<path d="M7.99542 1.14867C7.99627 1.29897 7.96804 1.44797 7.91234 1.58711C7.85664 1.72626 7.77457 1.85281 7.67083 1.95953L2.53334 7.19012C2.42844 7.29629 2.34517 7.4226 2.28834 7.56177C2.23152 7.70094 2.20226 7.85021 2.20226 8.00097C2.20226 8.15174 2.23152 8.30101 2.28834 8.44018C2.34517 8.57935 2.42844 8.70566 2.53334 8.81183L7.67083 14.0424C7.88159 14.2575 8 14.5491 8 14.8533C8 15.1574 7.88159 15.4491 7.67083 15.6641C7.46007 15.8792 7.17421 16 6.87614 16C6.72856 16 6.58241 15.9703 6.44606 15.9127C6.30971 15.8551 6.18581 15.7706 6.08146 15.6641L0.955162 10.4221C0.342283 9.77122 8.46237e-08 8.9036 9.53874e-08 8.00097C1.06151e-07 7.09835 0.342283 6.23073 0.955162 5.57983L6.08146 0.337818C6.18551 0.230775 6.3093 0.145811 6.44569 0.0878306C6.58209 0.029851 6.72838 8.02352e-08 6.87614 8.19972e-08C7.0239 8.37592e-08 7.1702 0.029851 7.30659 0.0878306C7.44299 0.145811 7.56678 0.230775 7.67083 0.337818C7.77457 0.444532 7.85664 0.571087 7.91234 0.710231C7.96804 0.849376 7.99627 0.998371 7.99542 1.14867Z" fill="#1E1E1E"/>
</svg>
