<svg width="16" height="16" viewBox="0 0 16 16" fill="none" xmlns="http://www.w3.org/2000/svg">
<path d="M5.66744 3.99857C5.66693 4.08631 5.68375 4.17329 5.71692 4.25451C5.7501 4.33574 5.79898 4.40961 5.86077 4.47191L8.92077 7.52524C8.98326 7.58722 9.03285 7.66095 9.0667 7.74219C9.10055 7.82343 9.11797 7.91057 9.11797 7.99857C9.11797 8.08658 9.10055 8.17372 9.0667 8.25496C9.03285 8.3362 8.98326 8.40993 8.92077 8.47191L5.86077 11.5252C5.73524 11.6508 5.66471 11.821 5.66471 11.9986C5.66471 12.1761 5.73524 12.3464 5.86077 12.4719C5.98631 12.5974 6.15657 12.668 6.33411 12.668C6.42201 12.668 6.50906 12.6507 6.59027 12.617C6.67149 12.5834 6.74528 12.5341 6.80744 12.4719L9.86077 9.41191C10.2258 9.03195 10.4297 8.52548 10.4297 7.99857C10.4297 7.47167 10.2258 6.9652 9.86077 6.58524L6.80744 3.52524C6.74546 3.46276 6.67173 3.41316 6.59049 3.37931C6.50925 3.34547 6.42211 3.32804 6.33411 3.32804C6.2461 3.32804 6.15896 3.34547 6.07772 3.37931C5.99648 3.41316 5.92275 3.46276 5.86077 3.52524C5.79898 3.58753 5.7501 3.66141 5.71692 3.74264C5.68375 3.82386 5.66693 3.91084 5.66744 3.99857Z" fill="#1E1E1E"/>
</svg>
