<svg width="16" height="17" viewBox="0 0 16 17" fill="none" xmlns="http://www.w3.org/2000/svg">
<g clip-path="url(#clip0_930_2388)">
<path d="M8 16.6797C3.58867 16.6797 0 13.091 0 8.67969C0 4.26835 3.58867 0.679688 8 0.679688C12.4113 0.679688 16 4.26835 16 8.67969C16 13.091 12.4113 16.6797 8 16.6797ZM8 2.01302C4.324 2.01302 1.33333 5.00369 1.33333 8.67969C1.33333 12.3557 4.324 15.3464 8 15.3464C11.676 15.3464 14.6667 12.3557 14.6667 8.67969C14.6667 5.00369 11.676 2.01302 8 2.01302ZM11.3333 8.67969C11.3333 8.31102 11.0353 8.01302 10.6667 8.01302H8.66667V4.67969C8.66667 4.31102 8.368 4.01302 8 4.01302C7.632 4.01302 7.33333 4.31102 7.33333 4.67969V8.67969C7.33333 9.04835 7.632 9.34635 8 9.34635H10.6667C11.0353 9.34635 11.3333 9.04835 11.3333 8.67969Z" fill="black"/>
</g>
<defs>
<clipPath id="clip0_930_2388">
<rect width="16" height="16" fill="white" transform="translate(0 0.679688)"/>
</clipPath>
</defs>
</svg>
