<svg width="16" height="16" viewBox="0 0 16 16" fill="none" xmlns="http://www.w3.org/2000/svg">
<path d="M13.6667 2.66667H11.6C11.4453 1.91428 11.0359 1.23823 10.4408 0.752479C9.84579 0.266727 9.10147 0.000969683 8.33333 0L7 0C6.23186 0.000969683 5.48755 0.266727 4.8925 0.752479C4.29745 1.23823 3.88806 1.91428 3.73333 2.66667H1.66667C1.48986 2.66667 1.32029 2.7369 1.19526 2.86193C1.07024 2.98695 1 3.15652 1 3.33333C1 3.51014 1.07024 3.67971 1.19526 3.80474C1.32029 3.92976 1.48986 4 1.66667 4H2.33333V12.6667C2.33439 13.5504 2.68592 14.3976 3.31081 15.0225C3.93571 15.6474 4.78294 15.9989 5.66667 16H9.66667C10.5504 15.9989 11.3976 15.6474 12.0225 15.0225C12.6474 14.3976 12.9989 13.5504 13 12.6667V4H13.6667C13.8435 4 14.013 3.92976 14.1381 3.80474C14.2631 3.67971 14.3333 3.51014 14.3333 3.33333C14.3333 3.15652 14.2631 2.98695 14.1381 2.86193C14.013 2.7369 13.8435 2.66667 13.6667 2.66667ZM7 1.33333H8.33333C8.74685 1.33384 9.15008 1.46225 9.48774 1.70096C9.8254 1.93967 10.0809 2.27699 10.2193 2.66667H5.114C5.25239 2.27699 5.50793 1.93967 5.84559 1.70096C6.18325 1.46225 6.58648 1.33384 7 1.33333ZM11.6667 12.6667C11.6667 13.1971 11.456 13.7058 11.0809 14.0809C10.7058 14.456 10.1971 14.6667 9.66667 14.6667H5.66667C5.13623 14.6667 4.62753 14.456 4.25245 14.0809C3.87738 13.7058 3.66667 13.1971 3.66667 12.6667V4H11.6667V12.6667Z" fill="white"/>
<path d="M6.33341 11.9993C6.51023 11.9993 6.67979 11.9291 6.80482 11.8041C6.92984 11.6791 7.00008 11.5095 7.00008 11.3327V7.33268C7.00008 7.15587 6.92984 6.9863 6.80482 6.86128C6.67979 6.73625 6.51023 6.66602 6.33341 6.66602C6.1566 6.66602 5.98703 6.73625 5.86201 6.86128C5.73699 6.9863 5.66675 7.15587 5.66675 7.33268V11.3327C5.66675 11.5095 5.73699 11.6791 5.86201 11.8041C5.98703 11.9291 6.1566 11.9993 6.33341 11.9993Z" fill="white"/>
<path d="M8.99992 11.9993C9.17673 11.9993 9.3463 11.9291 9.47132 11.8041C9.59635 11.6791 9.66659 11.5095 9.66659 11.3327V7.33268C9.66659 7.15587 9.59635 6.9863 9.47132 6.86128C9.3463 6.73625 9.17673 6.66602 8.99992 6.66602C8.82311 6.66602 8.65354 6.73625 8.52851 6.86128C8.40349 6.9863 8.33325 7.15587 8.33325 7.33268V11.3327C8.33325 11.5095 8.40349 11.6791 8.52851 11.8041C8.65354 11.9291 8.82311 11.9993 8.99992 11.9993Z" fill="white"/>
</svg>
